
<svg height="512pt" viewBox="-30 0 512 512.002" width="512pt" xmlns="http://www.w3.org/2000/svg"><path d="m328.003906 504.480469v-90.851563c0-18.179687 8.003906-35.511718 22.046875-47.058594 43.589844-35.832031 71.171875-90.425781 70.398438-151.4375-.429688-33.730468-9.507813-65.328124-25.097657-92.71875l-96.605468 32.230469 71.054687-62.054687-44.238281-28.390625 11.25-5.480469c-30.921875-21.246094-68.351562-33.707031-108.679688-33.78125-68.4375-.132812-128.574218 35.414062-162.867187 89.074219l-11.167969 20c-12.207031 25.292969-19.042968 53.664062-19.042968 83.628906 0 12.738281 3.601562 37.222656 3.601562 37.222656l-28.371094 50.207031c-6.359375 11.25-1.40625 25.527344 10.550782 30.425782l34.363281 14.074218v57.578126c0 20.0625 16.261719 36.328124 36.328125 36.328124h47.296875v61.007813h189.179687zm0 0" fill="#efb490"/><path d="m172.277344 52.972656c64.234375 0 122.296875 26.402344 163.957031 68.929688l33.566406-29.316406-44.238281-28.386719 11.25-5.480469c-30.921875-21.246094-68.351562-33.707031-108.679688-33.785156-41.125-.078125-79.246093 12.742187-110.566406 34.617187 17.535156-4.289062 35.851563-6.578125 54.710938-6.578125zm0 0" fill="#d49f80"/><path d="m401.78125 282.476562c0 6.660157-.300781 13.25-.855469 19.769532 12.847657-26.246094 19.921875-55.832032 19.523438-87.113282-.429688-33.730468-9.507813-65.328124-25.097657-92.71875l-45.175781 15.070313c32.253907 39.527344 51.605469 89.996094 51.605469 144.992187zm0 0" fill="#d49f80"/><path d="m431.679688 95.71875 13.742187 9.988281-146.675781 48.9375 71.054687-62.058593-44.238281-28.386719 116.390625-56.679688-46.480469 61.882813 13.492188 9.808594zm0 0" fill="#fcda55"/><path d="m431.679688 95.71875-22.714844-16.507812-13.492188-9.808594 46.480469-61.882813-36.746094 17.894531-27.046875 36.007813c-5.507812 7.332031-3.945312 17.753906 3.476563 23.148437l22.710937 16.507813 13.742188 9.988281-112.378906 37.492188-6.964844 6.085937 146.675781-48.9375zm0 0" fill="#e3c44d"/><path d="m184.269531 421.511719c-16.253906 14.242187-45.167969 14.484375-45.460937 14.484375h-47.285156c-15.894532 0-28.828126-12.933594-28.828126-28.828125v-57.578125c0-3.042969-1.839843-5.785156-4.65625-6.9375l-34.363281-14.078125c-7.710937-3.15625-11.046875-12.394531-6.863281-19.796875 29.136719-52.671875 29.929688-50.460938 29.261719-54.984375-.035157-.238281-3.523438-24.082031-3.523438-36.132813 0-28.164062 6.15625-55.203125 18.300781-80.371094 1.800782-3.730468.234376-8.214843-3.496093-10.011718-3.730469-1.800782-8.214844-.238282-10.011719 3.496094-13.132812 27.214843-19.789062 56.445312-19.789062 86.886718 0 10.792969 2.382812 29.027344 3.316406 35.753906l-27.117188 47.984376c-8.5625 15.152343-1.914062 34.4375 14.238282 41.058593l29.703124 12.167969v52.542969c0 24.167969 19.664063 43.828125 43.828126 43.828125h39.796874v53.507812c0 4.140625 3.359376 7.5 7.5 7.5 4.144532 0 7.5-3.359375 7.5-7.5v-53.945312c11.28125-1.035156 32.894532-4.671875 47.839844-17.765625 3.113282-2.730469 3.425782-7.46875.695313-10.585938-2.730469-3.113281-7.46875-3.425781-10.585938-.695312zm0 0"/><path d="m449.828125 99.660156-13.742187-9.988281c-3.347657-2.433594-8.039063-1.691406-10.472657 1.65625-2.4375 3.351563-1.695312 8.042969 1.652344 10.476563l1.957031 1.421874-36.246094 12.09375-61.136718 20.394532 42.890625-37.457032c3.761719-3.289062 3.3125-9.269531-.882813-11.960937l-33.003906-21.179687 76.4375-37.222657c-27.476562 37.832031-30.046875 37.175781-29.226562 42.640625.742187 4.9375 5.003906 5.808594 11.945312 11.453125 3.355469 2.433594 8.042969 1.691407 10.476562-1.65625 2.4375-3.351562 1.695313-8.042969-1.65625-10.476562l-2.777343-2.023438 41.90625-55.789062c4.703125-6.265625-2.222657-14.683594-9.28125-11.246094l-101.566407 49.460937c-89.566406-58.582031-207.160156-36.375-269.960937 47.871094-2.472656 3.320313-1.785156 8.019532 1.53125 10.492188 3.320313 2.476562 8.023437 1.792968 10.496094-1.53125 59.742187-80.152344 165.484375-94.414063 242.359375-49.195313-.164063.105469-.125.367188-.28125.484375-3.261719 2.429688-3.207032 5.5-3.171875 5.402344.023437.101562-.394531 4.292969 3.433593 6.75l35.835938 22.996094-63.535156 55.488281c-3.714844 3.246094-3.675782 9.820313 1.886718 12.335937 4.976563 2.285157.21875 1.191407 96.082032-29.820312 39.925781 76.019531 22.917968 172.207031-46.488282 229.265625-15.753906 12.949219-24.785156 32.214844-24.785156 52.855469v90.847656c0 4.144531 3.355469 7.5 7.5 7.5 4.140625 0 7.496094-3.355469 7.496094-7.5v-90.847656c0-16.136719 7.039062-31.179688 19.3125-41.265625 71.140625-58.484375 95.019531-159.214844 51.011719-245.542969l41.96875-14.003906c2.664062-.886719 4.609375-3.191406 5.039062-5.96875.425781-2.773438-.730469-5.558594-3.003906-7.210938zm0 0"/><path d="m305.113281 171.550781c-10.949219-.964843-23.398437-5.277343-22.496093-30.257812.148437-4.140625-3.085938-7.613281-7.226563-7.765625-4.097656-.132813-7.613281 3.085937-7.765625 7.226562-.984375 27.351563 11.859375 43.59375 36.167969 45.738282 4.070312.371093 7.761719-2.644532 8.128906-6.8125.367187-4.125-2.683594-7.765626-6.808594-8.128907zm0 0"/></svg>